<svg width="15" height="13" viewBox="0 0 15 13" fill="none" xmlns="http://www.w3.org/2000/svg">
<path d="M12.7916 1.19922H1.59896C1.3791 1.19922 1.19922 1.3791 1.19922 1.59896V6.39582H13.1914V1.59896C13.1914 1.3791 13.0115 1.19922 12.7916 1.19922ZM14.3906 6.39582V7.59504V8.79426C14.3906 9.67618 13.6736 10.3932 12.7916 10.3932H9.10155L9.30142 11.5924H10.5931C10.9254 11.5924 11.1927 11.8598 11.1927 12.192C11.1927 12.5243 10.9254 12.7916 10.5931 12.7916H8.79426H5.59634H3.79752C3.46524 12.7916 3.19791 12.5243 3.19791 12.192C3.19791 11.8598 3.46524 11.5924 3.79752 11.5924H5.08918L5.28904 10.3932H1.59896C0.717032 10.3932 0 9.67618 0 8.79426V7.59504V6.39582V1.59896C0 0.717032 0.717032 0 1.59896 0H12.7916C13.6736 0 14.3906 0.717032 14.3906 1.59896V6.39582ZM1.19922 7.59504V8.79426C1.19922 9.01411 1.3791 9.19399 1.59896 9.19399H5.98359C5.99109 9.19399 5.99858 9.19399 6.00358 9.19399H8.38202C8.38952 9.19399 8.39701 9.19399 8.40201 9.19399H12.7916C13.0115 9.19399 13.1914 9.01411 13.1914 8.79426V7.59504H1.19922ZM6.30338 11.5924H8.08472L7.88485 10.3932H6.50325L6.30338 11.5924Z" fill="#2A2A2A"/>
</svg>
