<svg width="14" height="14" viewBox="0 0 14 14" fill="none" xmlns="http://www.w3.org/2000/svg">
<path d="M12.5 6.5H1.5V7.5H12.5V6.5ZM14 7.5C14 8.32812 13.3281 9 12.5 9H1.5C0.671875 9 0 8.32812 0 7.5V6.5C0 5.67188 0.671875 5 1.5 5H12.5C13.3281 5 14 5.67188 14 6.5V7.5ZM6.5 11.5H1.5V12.5H6.5V11.5ZM8 12.5C8 13.3281 7.32812 14 6.5 14H1.5C0.671875 14 0 13.3281 0 12.5V11.5C0 10.6719 0.671875 10 1.5 10H6.5C7.32812 10 8 10.6719 8 11.5V12.5ZM10.5 2.5V1.5H1.5V2.5H10.5ZM10.5 4H1.5C0.671875 4 0 3.32812 0 2.5V1.5C0 0.671875 0.671875 0 1.5 0H10.5C11.3281 0 12 0.671875 12 1.5V2.5C12 3.32812 11.3281 4 10.5 4Z" fill="#6A28EA"/>
</svg>
