<svg width="34" height="34" viewBox="0 0 34 34" fill="none" xmlns="http://www.w3.org/2000/svg">
<path d="M17.9946 2.39929C18.6544 2.39929 19.1943 2.93913 19.1943 3.59893V29.9911C19.1943 30.6509 18.6544 31.1907 17.9946 31.1907H15.5954C14.9356 31.1907 14.3957 30.6509 14.3957 29.9911V3.59893C14.3957 2.93913 14.9356 2.39929 15.5954 2.39929H17.9946ZM15.5954 0C13.6084 0 11.9964 1.61202 11.9964 3.59893V29.9911C11.9964 31.978 13.6084 33.59 15.5954 33.59H17.9946C19.9816 33.59 21.5936 31.978 21.5936 29.9911V3.59893C21.5936 1.61202 19.9816 0 17.9946 0H15.5954ZM5.99821 16.795C6.65802 16.795 7.19786 17.3348 7.19786 17.9946V29.9911C7.19786 30.6509 6.65802 31.1907 5.99821 31.1907H3.59893C2.93913 31.1907 2.39929 30.6509 2.39929 29.9911V17.9946C2.39929 17.3348 2.93913 16.795 3.59893 16.795H5.99821ZM3.59893 14.3957C1.61202 14.3957 0 16.0077 0 17.9946V29.9911C0 31.978 1.61202 33.59 3.59893 33.59H5.99821C7.98512 33.59 9.59714 31.978 9.59714 29.9911V17.9946C9.59714 16.0077 7.98512 14.3957 5.99821 14.3957H3.59893ZM27.5918 7.19786H29.9911C30.6509 7.19786 31.1907 7.7377 31.1907 8.3975V29.9911C31.1907 30.6509 30.6509 31.1907 29.9911 31.1907H27.5918C26.932 31.1907 26.3921 30.6509 26.3921 29.9911V8.3975C26.3921 7.7377 26.932 7.19786 27.5918 7.19786ZM23.9929 8.3975V29.9911C23.9929 31.978 25.6049 33.59 27.5918 33.59H29.9911C31.978 33.59 33.59 31.978 33.59 29.9911V8.3975C33.59 6.41059 31.978 4.79857 29.9911 4.79857H27.5918C25.6049 4.79857 23.9929 6.41059 23.9929 8.3975Z" fill="#2A2A2A"/>
</svg>
