<svg width="230" height="137" viewBox="0 0 230 137" fill="none" xmlns="http://www.w3.org/2000/svg">
<g clip-path="url(#clip0_1_1917)">
<path fill-rule="evenodd" clip-rule="evenodd" d="M108.493 14.0627C111.725 15.9901 113.31 19.7237 112.402 23.275C111.313 27.538 108.128 37.3227 104.516 48.4233C102.752 53.8443 100.885 59.5791 99.111 65.1379C97.6375 69.7542 96.2136 74.2885 94.9311 78.5113C97.8945 75.9944 101.021 73.3023 104.171 70.5637C111.147 64.4982 118.169 58.2614 123.66 53.2997C126.408 50.8173 128.756 48.669 130.515 47.0288C131.397 46.2072 132.111 45.5309 132.646 45.0134C133.03 44.6423 133.253 44.4173 133.362 44.3063C133.745 43.8532 134.358 43.2166 135.201 42.6456C135.875 42.189 137.334 41.3324 139.425 41.1564C141.902 40.948 144.302 41.78 146.077 43.3486C147.571 44.6693 148.21 46.1365 148.472 46.855C148.762 47.6518 148.875 48.3329 148.926 48.7326C149.029 49.5291 149.005 50.2053 148.986 50.5577C148.915 51.8772 148.59 53.5031 148.306 54.8098C147.667 57.7595 146.563 62.0243 145.309 66.6538C144.024 71.3933 142.533 76.6913 141.119 81.6576C144.239 80.7333 147.718 79.5687 151.383 78.2553C159.8 75.2393 168.646 71.6434 175.676 68.7861C177.531 68.0322 179.259 67.3297 180.82 66.7029C185.205 64.9412 190.265 66.9789 192.122 71.2542C193.978 75.5294 191.928 80.4233 187.542 82.1849C186.09 82.7682 184.443 83.4378 182.648 84.1677C175.61 87.0287 166.293 90.8166 157.49 93.9711C151.961 95.9526 146.414 97.7656 141.584 98.971C139.17 99.5732 136.78 100.064 134.563 100.33C132.486 100.579 129.916 100.716 127.428 100.19C125.094 99.6971 123.066 98.2899 121.825 96.3029C120.583 94.316 120.239 91.9265 120.874 89.7019C121.26 88.3499 121.694 86.8352 122.162 85.2051C123.06 82.0734 124.08 78.5153 125.116 74.8636C122.077 77.5519 118.906 80.3358 115.744 83.0854C108.701 89.209 101.638 95.2189 96.1665 99.6295C93.4537 101.817 91.0055 103.713 89.0977 105.049C88.1824 105.689 87.1532 106.37 86.1659 106.892C85.7165 107.13 84.8936 107.542 83.8788 107.833C83.3743 107.978 82.4618 108.2 81.3128 108.21C80.2004 108.22 78.0953 108.032 76.0222 106.582C74.2247 105.325 72.9848 103.452 72.5576 101.347C72.2132 99.651 72.3473 97.9952 72.446 97.0556C72.5668 95.9053 72.7813 94.6477 73.038 93.3739C73.5538 90.8144 74.345 87.6793 75.2917 84.2435C76.9955 78.0597 79.3183 70.4898 81.7779 62.7325C74.5612 72.5043 67.4736 82.7044 62.3503 91.3282C59.9806 95.3169 54.711 96.654 50.5802 94.3149C46.4494 91.9758 45.0217 86.8461 47.3913 82.8574C55.2568 69.6179 67.1211 53.3961 77.2221 40.342C82.3 33.7796 86.9918 27.9412 90.6012 23.5794C92.4033 21.4014 93.9556 19.5675 95.1631 18.1839C96.1598 17.0418 97.3922 15.6513 98.3084 14.8704C101.133 12.4626 105.261 12.1352 108.493 14.0627ZM146.883 54.8262C146.959 54.7305 147.007 54.6635 147.028 54.6348C147.031 54.6303 147.034 54.6267 147.036 54.6241C146.986 54.6922 146.935 54.7596 146.883 54.8262ZM89.5792 99.233C89.5792 99.233 89.5785 99.2133 89.5809 99.1687C89.581 99.2098 89.5792 99.233 89.5792 99.233Z" fill="#FDF393"/>
<path fill-rule="evenodd" clip-rule="evenodd" d="M171.879 63.5932C172.558 63.7168 173.008 64.3671 172.884 65.0455C172.772 65.6611 172.621 66.4889 172.512 67.2633C172.395 68.1007 172.359 68.6777 172.389 68.8903C172.486 69.573 172.012 70.2053 171.329 70.3026C170.646 70.3998 170.014 69.9252 169.917 69.2424C169.828 68.6203 169.931 67.687 170.039 66.9167C170.155 66.0874 170.315 65.2145 170.425 64.6064L170.427 64.5977C170.551 63.9192 171.201 63.4695 171.879 63.5932Z" fill="#20025B"/>
<path fill-rule="evenodd" clip-rule="evenodd" d="M169.29 78.9469C168.618 78.7902 168.201 78.1188 168.357 77.4472C168.499 76.8378 168.69 76.0184 168.837 75.2502C168.995 74.4195 169.059 73.845 169.039 73.6312C168.975 72.9445 169.48 72.3361 170.167 72.2723C170.854 72.2085 171.462 72.7134 171.526 73.4001C171.584 74.0259 171.435 74.953 171.29 75.7171C171.133 76.5397 170.932 77.4038 170.791 78.0058L170.789 78.0144C170.633 78.686 169.961 79.1035 169.29 78.9469Z" fill="#20025B"/>
<path fill-rule="evenodd" clip-rule="evenodd" d="M163.594 69.7267C163.926 69.1221 164.685 68.901 165.289 69.2329C165.465 69.3291 166.06 69.5115 166.811 69.6484C167.157 69.7115 167.484 69.7553 167.742 69.7744C167.967 69.7911 168.057 69.782 168.057 69.7848C168.057 69.7848 168.054 69.7864 168.048 69.7881C168.699 69.6191 169.37 69.9976 169.56 70.6476C169.753 71.3097 169.372 72.0028 168.71 72.1957C168.326 72.3077 167.863 72.2876 167.557 72.265C167.189 72.2376 166.772 72.1797 166.363 72.1053C165.606 71.9673 164.652 71.7316 164.088 71.4221C163.483 71.0903 163.262 70.3312 163.594 69.7267Z" fill="#20025B"/>
<path fill-rule="evenodd" clip-rule="evenodd" d="M179.058 72.8346C178.882 73.5016 178.199 73.9002 177.532 73.7248C176.927 73.5657 176.113 73.352 175.35 73.1844C174.524 73.0032 173.951 72.9227 173.737 72.9366C173.049 72.9812 172.455 72.4595 172.41 71.7713C172.365 71.0831 172.887 70.489 173.575 70.4444C174.203 70.4038 175.125 70.5784 175.885 70.7451C176.703 70.9245 177.561 71.1501 178.159 71.3073L178.167 71.3095C178.834 71.4848 179.233 72.1676 179.058 72.8346Z" fill="#20025B"/>
<path fill-rule="evenodd" clip-rule="evenodd" d="M71.0281 14.6842C71.4445 14.389 72.0215 14.4873 72.3167 14.9038C72.5845 15.2817 72.9448 15.7896 73.2986 16.2477C73.6813 16.7431 73.9679 17.0609 74.0961 17.1548C74.5079 17.4565 74.5971 18.0349 74.2954 18.4467C73.9936 18.8584 73.4152 18.9476 73.0035 18.6459C72.6283 18.371 72.1876 17.8334 71.8357 17.3778C71.4568 16.8873 71.0769 16.3514 70.8123 15.9782L70.8085 15.9728C70.5133 15.5564 70.6116 14.9794 71.0281 14.6842Z" fill="#20025B"/>
<path fill-rule="evenodd" clip-rule="evenodd" d="M77.8168 23.9989C77.3865 24.2735 76.815 24.1471 76.5405 23.7168C76.2914 23.3263 75.9564 22.8013 75.6253 22.3265C75.2673 21.8131 74.9965 21.4817 74.873 21.3816C74.4765 21.0601 74.4156 20.478 74.7371 20.0815C75.0586 19.685 75.6406 19.6241 76.0372 19.9456C76.3985 20.2385 76.8124 20.7969 77.1417 21.2692C77.4962 21.7776 77.8494 22.3313 78.0955 22.7171L78.099 22.7226C78.3735 23.153 78.2472 23.7244 77.8168 23.9989Z" fill="#20025B"/>
<path fill-rule="evenodd" clip-rule="evenodd" d="M69.9884 22.243C69.8401 21.7546 70.1157 21.2383 70.6042 21.09C70.7459 21.0469 71.1505 20.826 71.6115 20.4992C71.8238 20.3487 72.0159 20.1985 72.1597 20.0717C72.2848 19.9613 72.3267 19.9088 72.3284 19.9101C72.3284 19.9101 72.3275 19.9125 72.3252 19.9168C72.5725 19.4847 73.1203 19.325 73.5624 19.561C74.0127 19.8014 74.1829 20.3614 73.9425 20.8117C73.8029 21.0731 73.5528 21.3078 73.3827 21.4579C73.1776 21.6388 72.9311 21.8297 72.6805 22.0074C72.2156 22.3369 71.5971 22.7203 71.1415 22.8587C70.6531 23.0071 70.1368 22.7314 69.9884 22.243Z" fill="#20025B"/>
<path fill-rule="evenodd" clip-rule="evenodd" d="M79.6339 15.6659C79.8963 16.1037 79.7541 16.6714 79.3162 16.9338C78.9189 17.1719 78.3848 17.4922 77.9009 17.8098C77.3777 18.1534 77.0389 18.4148 76.9354 18.5354C76.6029 18.9228 76.0194 18.9674 75.632 18.635C75.2446 18.3026 75.2 17.7191 75.5324 17.3317C75.8353 16.9786 76.4051 16.5805 76.8864 16.2645C77.4045 15.9244 77.9679 15.5867 78.3603 15.3515L78.366 15.3482C78.8038 15.0858 79.3715 15.228 79.6339 15.6659Z" fill="#20025B"/>
<path fill-rule="evenodd" clip-rule="evenodd" d="M59.9707 112.328C60.2899 112.939 61.0443 113.176 61.6556 112.856C62.2103 112.567 62.9561 112.177 63.6635 111.844C64.4285 111.484 64.9688 111.278 65.1808 111.244C65.8617 111.134 66.3249 110.494 66.2154 109.813C66.1058 109.132 65.4651 108.669 64.7842 108.778C64.1637 108.878 63.303 109.254 62.5994 109.585C61.8418 109.942 61.0553 110.352 60.5074 110.639L60.4995 110.643C59.8882 110.962 59.6515 111.716 59.9707 112.328Z" fill="#20025B"/>
<path fill-rule="evenodd" clip-rule="evenodd" d="M73.8666 105.304C73.5179 104.709 72.7529 104.509 72.1579 104.858C71.618 105.174 70.8921 105.599 70.2018 105.966C69.4553 106.364 68.9256 106.596 68.7156 106.64C68.0408 106.783 67.6095 107.445 67.7521 108.12C67.8947 108.795 68.5573 109.226 69.232 109.083C69.8469 108.953 70.6883 108.537 71.3749 108.171C72.1141 107.778 72.8797 107.329 73.413 107.017L73.4206 107.012C74.0156 106.664 74.2153 105.899 73.8666 105.304Z" fill="#20025B"/>
<path fill-rule="evenodd" clip-rule="evenodd" d="M63.3724 102.597C62.8934 103.093 62.9072 103.884 63.4034 104.363C63.5473 104.502 63.898 105.017 64.2514 105.693C64.4141 106.005 64.5528 106.304 64.6476 106.545C64.7302 106.754 64.7483 106.843 64.7511 106.843C64.7511 106.843 64.7516 106.839 64.7513 106.833C64.783 107.505 65.3435 108.034 66.0205 108.022C66.71 108.01 67.2592 107.441 67.2471 106.752C67.2401 106.352 67.0837 105.915 66.9715 105.63C66.8362 105.286 66.6572 104.905 66.4651 104.537C66.1088 103.855 65.6007 103.013 65.138 102.566C64.6419 102.087 63.8514 102.101 63.3724 102.597Z" fill="#20025B"/>
<path fill-rule="evenodd" clip-rule="evenodd" d="M70.9246 116.444C71.5096 116.079 71.6879 115.309 71.3227 114.724C70.9914 114.193 70.546 113.479 70.1596 112.799C69.7417 112.064 69.495 111.541 69.4447 111.333C69.2833 110.662 68.609 110.249 67.9385 110.411C67.268 110.572 66.8553 111.247 67.0167 111.917C67.1638 112.528 67.6041 113.357 67.9885 114.034C68.4023 114.762 68.8722 115.514 69.1995 116.039L69.2042 116.046C69.5693 116.631 70.3396 116.809 70.9246 116.444Z" fill="#20025B"/>
<path d="M77.8298 36.6004L131.475 24.4688C133.361 24.0425 135.235 25.2252 135.661 27.1106L150.881 94.4112C151.307 96.2965 150.124 98.1706 148.239 98.597L96.7994 110.23C95.4922 110.525 94.2468 111.047 93.1193 111.772L91.479 112.825L75.188 40.7862C74.7616 38.9008 75.9444 37.0268 77.8298 36.6004Z" fill="#E5DAFB" stroke="#020044" stroke-width="3"/>
<path d="M76.651 40.4547C76.4074 39.3774 77.0832 38.3065 78.1606 38.0629L83.0375 36.96L99.8174 111.16L97.8434 111.607C96.0481 112.013 94.4689 113.074 93.4147 114.583L76.651 40.4547Z" fill="#A47DF2"/>
<path d="M98.9155 48.2364L124.275 42.5015" stroke="black" stroke-width="3" stroke-linecap="round" stroke-linejoin="round"/>
<path d="M105.348 57.0333L122.254 53.21" stroke="black" stroke-width="3" stroke-linecap="round" stroke-linejoin="round"/>
<path d="M83.9199 40.8613L98.2572 104.26" stroke="black" stroke-width="2" stroke-linecap="round" stroke-linejoin="round" stroke-dasharray="5 6"/>
<path d="M152.866 103.189C153.17 104.535 152.326 105.874 150.979 106.179L96.8457 118.42C94.691 118.908 92.5492 117.556 92.062 115.401C91.5747 113.246 92.9264 111.105 95.0811 110.617L147.545 98.753C148.605 98.5135 149.569 97.9658 150.317 97.179L151.278 96.1687L152.866 103.189Z" fill="white" stroke="#020044" stroke-width="3"/>
</g>
<defs>
<clipPath id="clip0_1_1917">
<rect width="230" height="137" fill="white"/>
</clipPath>
</defs>
</svg>
