<svg width="14" height="16" viewBox="0 0 14 16" fill="none" xmlns="http://www.w3.org/2000/svg">
<path d="M0.69375 11.5688C3.01125 12.0638 4.17375 14.3025 4.4025 15.3675C4.4475 15.5738 4.49625 16.0012 4.8675 16.0012C5.23875 16.0012 5.4 15.5775 5.445 15.3675C5.9925 12.9263 8.1375 11.7638 9.15375 11.5688C9.44625 11.5125 9.9075 11.5687 9.9075 11.0512C9.9075 10.6237 9.35625 10.5675 9.15375 10.5338C6.78375 10.1513 5.6775 7.90875 5.445 6.85125C5.38875 6.585 5.235 6.05625 4.8675 6.10125C4.49625 6.14625 4.43625 6.61875 4.4025 6.8475C4.11 9.06375 1.8 10.245 0.69375 10.53C0.465 10.59 0 10.725 0 11.0475C0 11.37 0.465 11.5163 0.69375 11.565V11.5688ZM10.6388 2.68125C10.3575 3.9975 9.08625 4.6575 8.47875 4.78875C8.3625 4.815 8.11875 4.84125 8.11875 5.05125C8.11875 5.26125 8.35875 5.355 8.47875 5.38125C9.86625 5.6925 10.5263 6.91125 10.6388 7.48875C10.6688 7.65375 10.6388 7.91625 10.9313 7.91625C11.175 7.91625 11.2087 7.60125 11.2237 7.48875C11.4413 6.1425 12.7162 5.51625 13.3162 5.38125C13.4662 5.3475 13.7663 5.26125 13.74 5.05125C13.7138 4.84125 13.4437 4.80375 13.3162 4.78875C12.0562 4.62 11.385 3.31125 11.2237 2.68125C11.19 2.55375 11.1113 2.2875 10.9313 2.2875C10.7513 2.2875 10.665 2.55375 10.6388 2.68125ZM4.3125 1.89C3.32625 1.68 2.83125 0.72375 2.73375 0.27C2.715 0.18375 2.6925 0 2.535 0C2.3775 0 2.31 0.18 2.2875 0.27C2.055 1.3125 1.14 1.8075 0.70875 1.89C0.585 1.9125 0.38625 1.89 0.38625 2.11125C0.38625 2.295 0.6225 2.3175 0.70875 2.3325C1.7175 2.49375 2.19 3.45 2.2875 3.90375C2.31375 4.01625 2.3775 4.24125 2.535 4.2225C2.6925 4.20375 2.71875 4.00125 2.73375 3.90375C2.8575 2.95875 3.84 2.45625 4.3125 2.3325C4.41 2.30625 4.60875 2.25 4.60875 2.11125C4.60875 1.9725 4.41 1.9125 4.3125 1.89Z" fill="white"/>
</svg>
