<svg width="36" height="36" viewBox="0 0 36 36" fill="none" xmlns="http://www.w3.org/2000/svg">
<g clip-path="url(#clip0_1_1702)">
<g clip-path="url(#clip1_1_1702)">
<mask id="mask0_1_1702" style="mask-type:luminance" maskUnits="userSpaceOnUse" x="0" y="0" width="36" height="36">
<path d="M36 0H0V36H36V0Z" fill="white"/>
</mask>
<g mask="url(#mask0_1_1702)">
<path d="M83.4545 -25.2H-47.4546V61.2H83.4545V-25.2Z" fill="#FAF9F9"/>
<mask id="mask1_1_1702" style="mask-type:luminance" maskUnits="userSpaceOnUse" x="-5" y="-1" width="46" height="38">
<path d="M-4.25464 -0.0654297H40.2545V36.0655H-4.25464V-0.0654297Z" fill="white"/>
</mask>
<g mask="url(#mask1_1_1702)">
<g opacity="0.94">
<mask id="mask2_1_1702" style="mask-type:luminance" maskUnits="userSpaceOnUse" x="7" y="-6" width="38" height="45">
<path d="M25.9754 -5.0885C36.3675 -5.0885 44.805 4.61469 44.805 16.5656C44.805 28.5165 36.3675 38.2197 25.9754 38.2197C15.5833 38.2197 7.14575 28.5165 7.14575 16.5656C7.14575 4.61469 15.5833 -5.0885 25.9754 -5.0885Z" fill="url(#paint0_radial_1_1702)"/>
</mask>
<g mask="url(#mask2_1_1702)">
<path d="M25.9754 -5.0885C36.3675 -5.0885 44.805 4.61469 44.805 16.5656C44.805 28.5165 36.3675 38.2197 25.9754 38.2197C15.5833 38.2197 7.14575 28.5165 7.14575 16.5656C7.14575 4.61469 15.5833 -5.0885 25.9754 -5.0885Z" fill="url(#paint1_radial_1_1702)"/>
</g>
<mask id="mask3_1_1702" style="mask-type:luminance" maskUnits="userSpaceOnUse" x="-8" y="-19" width="39" height="46">
<path d="M11.4516 -18.2819C22.1844 -18.2819 30.8986 -8.26053 30.8986 4.08219C30.8986 16.4249 22.1844 26.4462 11.4516 26.4462C0.718841 26.4462 -7.99536 16.4249 -7.99536 4.08219C-7.99536 -8.26053 0.718841 -18.2819 11.4516 -18.2819Z" fill="url(#paint2_radial_1_1702)"/>
</mask>
<g mask="url(#mask3_1_1702)">
<path d="M11.4516 -18.2819C22.1844 -18.2819 30.8986 -8.26053 30.8986 4.08219C30.8986 16.4249 22.1844 26.4462 11.4516 26.4462C0.718841 26.4462 -7.99536 16.4249 -7.99536 4.08219C-7.99536 -8.26053 0.718841 -18.2819 11.4516 -18.2819Z" fill="url(#paint3_radial_1_1702)"/>
</g>
<mask id="mask4_1_1702" style="mask-type:luminance" maskUnits="userSpaceOnUse" x="16" y="-7" width="29" height="33">
<path d="M30.4974 -6.88538C38.1637 -6.88538 44.3881 0.272719 44.3881 9.08895C44.3881 17.9052 38.1637 25.0633 30.4974 25.0633C22.8311 25.0633 16.6067 17.9052 16.6067 9.08895C16.6067 0.272719 22.8311 -6.88538 30.4974 -6.88538Z" fill="url(#paint4_radial_1_1702)"/>
</mask>
<g mask="url(#mask4_1_1702)">
<path d="M30.4974 -6.88538C38.1637 -6.88538 44.3881 0.272719 44.3881 9.08895C44.3881 17.9052 38.1637 25.0633 30.4974 25.0633C22.8311 25.0633 16.6067 17.9052 16.6067 9.08895C16.6067 0.272719 22.8311 -6.88538 30.4974 -6.88538Z" fill="url(#paint5_radial_1_1702)"/>
</g>
<mask id="mask5_1_1702" style="mask-type:luminance" maskUnits="userSpaceOnUse" x="0" y="13" width="32" height="37">
<path d="M15.9725 13.2305C24.661 13.2305 31.7154 21.343 31.7154 31.3347C31.7154 41.3264 24.661 49.4389 15.9725 49.4389C7.28409 49.4389 0.229736 41.3264 0.229736 31.3347C0.229736 21.343 7.28409 13.2305 15.9725 13.2305Z" fill="url(#paint6_radial_1_1702)"/>
</mask>
<g mask="url(#mask5_1_1702)">
<path d="M15.9725 13.2305C24.661 13.2305 31.7154 21.343 31.7154 31.3347C31.7154 41.3264 24.661 49.4389 15.9725 49.4389C7.28409 49.4389 0.229736 41.3264 0.229736 31.3347C0.229736 21.343 7.28409 13.2305 15.9725 13.2305Z" fill="url(#paint7_radial_1_1702)"/>
</g>
<mask id="mask6_1_1702" style="mask-type:luminance" maskUnits="userSpaceOnUse" x="-18" y="-4" width="33" height="37">
<path d="M-1.15237 -3.98877C7.70645 -3.98877 14.8991 4.28281 14.8991 14.4704C14.8991 24.6581 7.70645 32.9297 -1.15237 32.9297C-10.0112 32.9297 -17.2039 24.6581 -17.2039 14.4704C-17.2039 4.28281 -10.0112 -3.98877 -1.15237 -3.98877Z" fill="url(#paint8_radial_1_1702)"/>
</mask>
<g mask="url(#mask6_1_1702)">
<path d="M-1.15237 -3.98877C7.70645 -3.98877 14.8991 4.28281 14.8991 14.4704C14.8991 24.6581 7.70645 32.9297 -1.15237 32.9297C-10.0112 32.9297 -17.2039 24.6581 -17.2039 14.4704C-17.2039 4.28281 -10.0112 -3.98877 -1.15237 -3.98877Z" fill="url(#paint9_radial_1_1702)"/>
</g>
</g>
</g>
</g>
</g>
<path d="M12.2924 21.5663C14.6099 22.0613 15.7724 24.3001 16.0011 25.3651C16.0461 25.5713 16.0949 25.9988 16.4661 25.9988C16.8374 25.9988 16.9986 25.5751 17.0436 25.3651C17.5911 22.9238 19.7361 21.7613 20.7524 21.5663C21.0449 21.5101 21.5061 21.5663 21.5061 21.0488C21.5061 20.6213 20.9549 20.5651 20.7524 20.5313C18.3824 20.1488 17.2761 17.9063 17.0436 16.8488C16.9874 16.5826 16.8336 16.0538 16.4661 16.0988C16.0949 16.1438 16.0349 16.6163 16.0011 16.8451C15.7086 19.0613 13.3986 20.2426 12.2924 20.5276C12.0636 20.5876 11.5986 20.7226 11.5986 21.0451C11.5986 21.3676 12.0636 21.5138 12.2924 21.5626V21.5663ZM22.2374 12.6788C21.9561 13.9951 20.6849 14.6551 20.0774 14.7863C19.9611 14.8126 19.7174 14.8388 19.7174 15.0488C19.7174 15.2588 19.9574 15.3526 20.0774 15.3788C21.4649 15.6901 22.1249 16.9088 22.2374 17.4863C22.2674 17.6513 22.2374 17.9138 22.5299 17.9138C22.7736 17.9138 22.8074 17.5988 22.8224 17.4863C23.0399 16.1401 24.3149 15.5138 24.9149 15.3788C25.0649 15.3451 25.3649 15.2588 25.3386 15.0488C25.3124 14.8388 25.0424 14.8013 24.9149 14.7863C23.6549 14.6176 22.9836 13.3088 22.8224 12.6788C22.7886 12.5513 22.7099 12.2851 22.5299 12.2851C22.3499 12.2851 22.2636 12.5513 22.2374 12.6788ZM15.9111 11.8876C14.9249 11.6776 14.4299 10.7213 14.3324 10.2676C14.3136 10.1813 14.2911 9.99756 14.1336 9.99756C13.9761 9.99756 13.9086 10.1776 13.8861 10.2676C13.6536 11.3101 12.7386 11.8051 12.3074 11.8876C12.1836 11.9101 11.9849 11.8876 11.9849 12.1088C11.9849 12.2926 12.2211 12.3151 12.3074 12.3301C13.3161 12.4913 13.7886 13.4476 13.8861 13.9013C13.9124 14.0138 13.9761 14.2388 14.1336 14.2201C14.2911 14.2013 14.3174 13.9988 14.3324 13.9013C14.4561 12.9563 15.4386 12.4538 15.9111 12.3301C16.0086 12.3038 16.2074 12.2476 16.2074 12.1088C16.2074 11.9701 16.0086 11.9101 15.9111 11.8876Z" fill="#2A2A2A"/>
</g>
<defs>
<radialGradient id="paint0_radial_1_1702" cx="0" cy="0" r="1" gradientUnits="userSpaceOnUse" gradientTransform="translate(25.9754 16.5656) scale(17.2502 19.8377)">
<stop stop-color="white" stop-opacity="0.5"/>
<stop offset="0.29" stop-color="white" stop-opacity="0.45"/>
<stop offset="0.49" stop-color="white" stop-opacity="0.4"/>
<stop offset="0.74" stop-color="white" stop-opacity="0.2"/>
<stop offset="1" stop-color="white" stop-opacity="0"/>
</radialGradient>
<radialGradient id="paint1_radial_1_1702" cx="0" cy="0" r="1" gradientUnits="userSpaceOnUse" gradientTransform="translate(25.9754 16.5656) scale(17.2502 19.8377)">
<stop stop-color="#FD5FEF"/>
<stop offset="0.24" stop-color="#FE82E7"/>
<stop offset="0.49" stop-color="#FFA5DE"/>
<stop offset="0.74" stop-color="#FFB8C2"/>
<stop offset="1" stop-color="#FFCBA5"/>
</radialGradient>
<radialGradient id="paint2_radial_1_1702" cx="0" cy="0" r="1" gradientUnits="userSpaceOnUse" gradientTransform="translate(11.4516 4.08219) scale(17.8157 20.4881)">
<stop stop-color="white" stop-opacity="0.8"/>
<stop offset="0.29" stop-color="white" stop-opacity="0.66"/>
<stop offset="0.49" stop-color="white" stop-opacity="0.52"/>
<stop offset="0.74" stop-color="white" stop-opacity="0.26"/>
<stop offset="1" stop-color="white" stop-opacity="0"/>
</radialGradient>
<radialGradient id="paint3_radial_1_1702" cx="0" cy="0" r="1" gradientUnits="userSpaceOnUse" gradientTransform="translate(11.4516 4.08219) scale(17.8157 20.4881)">
<stop stop-color="#FDD6ED"/>
<stop offset="0.24" stop-color="#FDD6ED"/>
<stop offset="0.49" stop-color="#FDD6ED"/>
<stop offset="0.74" stop-color="#FDD6ED"/>
<stop offset="1" stop-color="#FDD7EE"/>
</radialGradient>
<radialGradient id="paint4_radial_1_1702" cx="0" cy="0" r="1" gradientUnits="userSpaceOnUse" gradientTransform="translate(30.4974 9.08895) scale(12.7255 14.6344)">
<stop stop-color="white" stop-opacity="0.8"/>
<stop offset="0.29" stop-color="white" stop-opacity="0.66"/>
<stop offset="0.49" stop-color="white" stop-opacity="0.52"/>
<stop offset="0.74" stop-color="white" stop-opacity="0.26"/>
<stop offset="1" stop-color="white" stop-opacity="0"/>
</radialGradient>
<radialGradient id="paint5_radial_1_1702" cx="0" cy="0" r="1" gradientUnits="userSpaceOnUse" gradientTransform="translate(30.4974 9.08895) scale(12.7255 14.6344)">
<stop stop-color="#FEFFBD"/>
<stop offset="0.24" stop-color="#FCFEC7"/>
<stop offset="0.49" stop-color="#FAFED1"/>
<stop offset="0.74" stop-color="#F9FED2"/>
<stop offset="1" stop-color="#F9FED2"/>
</radialGradient>
<radialGradient id="paint6_radial_1_1702" cx="0" cy="0" r="1" gradientUnits="userSpaceOnUse" gradientTransform="translate(15.9725 31.3347) scale(14.4223 16.5856)">
<stop stop-color="white" stop-opacity="0.6"/>
<stop offset="0.29" stop-color="white" stop-opacity="0.5"/>
<stop offset="0.49" stop-color="white" stop-opacity="0.4"/>
<stop offset="0.74" stop-color="white" stop-opacity="0.2"/>
<stop offset="1" stop-color="white" stop-opacity="0"/>
</radialGradient>
<radialGradient id="paint7_radial_1_1702" cx="0" cy="0" r="1" gradientUnits="userSpaceOnUse" gradientTransform="translate(15.9725 31.3347) scale(14.4223 16.5856)">
<stop stop-color="#C4FFF3"/>
<stop offset="0.24" stop-color="#C0FCF5"/>
<stop offset="0.49" stop-color="#BBFAF8"/>
<stop offset="0.74" stop-color="#BBF1F9"/>
<stop offset="1" stop-color="#BBE8FA"/>
</radialGradient>
<radialGradient id="paint8_radial_1_1702" cx="0" cy="0" r="1" gradientUnits="userSpaceOnUse" gradientTransform="translate(-1.15236 14.4704) scale(14.7051 16.9108)">
<stop stop-color="white" stop-opacity="0.7"/>
<stop offset="0.29" stop-color="white" stop-opacity="0.55"/>
<stop offset="0.48" stop-color="white" stop-opacity="0.4"/>
<stop offset="0.74" stop-color="white" stop-opacity="0.2"/>
<stop offset="1" stop-color="white" stop-opacity="0"/>
</radialGradient>
<radialGradient id="paint9_radial_1_1702" cx="0" cy="0" r="1" gradientUnits="userSpaceOnUse" gradientTransform="translate(-1.15236 14.4704) scale(14.7051 16.9108)">
<stop stop-color="#E1B2FE"/>
<stop offset="0.24" stop-color="#E3B7FE"/>
<stop offset="0.49" stop-color="#E5BCFF"/>
<stop offset="0.74" stop-color="#E6BBFF"/>
<stop offset="1" stop-color="#E7BAFF"/>
</radialGradient>
<clipPath id="clip0_1_1702">
<rect width="36" height="36" rx="12" fill="white"/>
</clipPath>
<clipPath id="clip1_1_1702">
<rect width="36" height="36" fill="white"/>
</clipPath>
</defs>
</svg>
