<svg width="20" height="20" viewBox="0 0 20 20" fill="none" xmlns="http://www.w3.org/2000/svg">
<path d="M17.3957 9.59765C17.3957 7.52947 16.5742 5.54599 15.1117 4.08357C13.6493 2.62114 11.6658 1.79956 9.59765 1.79956C7.52947 1.79956 5.54599 2.62114 4.08357 4.08357C2.62114 5.54599 1.79956 7.52947 1.79956 9.59765C1.79956 11.6658 2.62114 13.6493 4.08357 15.1117C5.54599 16.5742 7.52947 17.3957 9.59765 17.3957C11.6658 17.3957 13.6493 16.5742 15.1117 15.1117C16.5742 13.6493 17.3957 11.6658 17.3957 9.59765ZM0 9.59765C0 7.05219 1.01118 4.61099 2.81109 2.81109C4.61099 1.01118 7.05219 0 9.59765 0C12.1431 0 14.5843 1.01118 16.3842 2.81109C18.1841 4.61099 19.1953 7.05219 19.1953 9.59765C19.1953 12.1431 18.1841 14.5843 16.3842 16.3842C14.5843 18.1841 12.1431 19.1953 9.59765 19.1953C7.05219 19.1953 4.61099 18.1841 2.81109 16.3842C1.01118 14.5843 0 12.1431 0 9.59765ZM6.36594 6.19723C6.66212 5.36119 7.45692 4.79882 8.34546 4.79882H10.5312C11.8396 4.79882 12.8968 5.85982 12.8968 7.1645C12.8968 8.01179 12.4432 8.79535 11.7084 9.21899L10.4974 9.91257C10.4899 10.4 10.0888 10.7974 9.59765 10.7974C9.09902 10.7974 8.69787 10.3962 8.69787 9.89758V9.39145C8.69787 9.06903 8.87033 8.77285 9.15151 8.61164L10.8124 7.65937C10.9886 7.55815 11.0973 7.37069 11.0973 7.16824C11.0973 6.85332 10.8423 6.60213 10.5312 6.60213H8.34546C8.21799 6.60213 8.10552 6.68086 8.06428 6.80083L8.04928 6.84582C7.88432 7.31446 7.36695 7.55815 6.90206 7.39319C6.43717 7.22823 6.18973 6.71086 6.35469 6.24597L6.36969 6.20098L6.36594 6.19723ZM8.39794 13.1968C8.39794 12.8786 8.52434 12.5734 8.74933 12.3484C8.97432 12.1235 9.27947 11.9971 9.59765 11.9971C9.91583 11.9971 10.221 12.1235 10.446 12.3484C10.671 12.5734 10.7974 12.8786 10.7974 13.1968C10.7974 13.515 10.671 13.8201 10.446 14.0451C10.221 14.2701 9.91583 14.3965 9.59765 14.3965C9.27947 14.3965 8.97432 14.2701 8.74933 14.0451C8.52434 13.8201 8.39794 13.515 8.39794 13.1968Z" fill="#2A2A2A"/>
</svg>
