<svg width="17" height="20" viewBox="0 0 17 20" fill="none" xmlns="http://www.w3.org/2000/svg">
<path d="M8.39711 0C7.73352 0 7.1974 0.536119 7.1974 1.19971V1.91953C4.46057 2.47439 2.39857 4.8963 2.39857 7.79809V8.75036C2.39857 10.4524 1.81747 12.1058 0.756476 13.433L0.197863 14.134C-0.0195838 14.404 -0.0608236 14.7751 0.0891396 15.0863C0.239103 15.3975 0.554026 15.5962 0.898941 15.5962H15.8953C16.2402 15.5962 16.5551 15.3975 16.7051 15.0863C16.855 14.7751 16.8138 14.404 16.5963 14.134L16.0377 13.4367C14.9767 12.1058 14.3956 10.4524 14.3956 8.75036V7.79809C14.3956 4.8963 12.3336 2.47439 9.59681 1.91953V1.19971C9.59681 0.536119 9.06069 0 8.39711 0ZM8.39711 3.59912C10.7178 3.59912 12.5961 5.47741 12.5961 7.79809V8.75036C12.5961 10.5462 13.1172 12.297 14.0845 13.7966H2.70975C3.67701 12.297 4.19813 10.5462 4.19813 8.75036V7.79809C4.19813 5.47741 6.07642 3.59912 8.39711 3.59912ZM10.7965 16.7959H8.39711H5.99769C5.99769 17.4332 6.24888 18.0443 6.69877 18.4942C7.14866 18.9441 7.75976 19.1953 8.39711 19.1953C9.03445 19.1953 9.64555 18.9441 10.0954 18.4942C10.5453 18.0443 10.7965 17.4332 10.7965 16.7959Z" fill="#2A2A2A"/>
</svg>
