<svg width="16" height="16" viewBox="0 0 16 16" fill="none" xmlns="http://www.w3.org/2000/svg">
<path d="M7.24687 1.3875C6.74062 0.528125 5.81562 0 4.81875 0H4.75C3.23125 0 2 1.23125 2 2.75C2 3.2 2.10937 3.625 2.3 4H1.5C0.671875 4 0 4.67188 0 5.5V7.5C0 8.15312 0.41875 8.70937 1 8.91562V9V14C1 15.1031 1.89688 16 3 16H13C14.1031 16 15 15.1031 15 14V9V8.91562C15.5813 8.70937 16 8.15312 16 7.5V5.5C16 4.67188 15.3281 4 14.5 4H13.7C13.8906 3.625 14 3.2 14 2.75C14 1.23125 12.7687 0 11.25 0H11.1812C10.1844 0 9.25938 0.528125 8.75313 1.3875L8 2.67188L7.24687 1.39062V1.3875ZM14.5 5.5V7.5H13.5H9V5.5H11.25H14.5ZM7 5.5V7.5H2.5H1.5V5.5H4.75H7ZM7 9V14.5H3C2.725 14.5 2.5 14.275 2.5 14V9H7ZM9 14.5V9H13.5V14C13.5 14.275 13.275 14.5 13 14.5H9ZM11.25 4H9H8.95938L10.0469 2.15C10.2844 1.74688 10.7156 1.5 11.1812 1.5H11.25C11.9406 1.5 12.5 2.05937 12.5 2.75C12.5 3.44063 11.9406 4 11.25 4ZM7 4H4.75C4.05937 4 3.5 3.44063 3.5 2.75C3.5 2.05937 4.05937 1.5 4.75 1.5H4.81875C5.28437 1.5 5.71875 1.74688 5.95312 2.15L7.04063 4H7Z" fill="#2A2A2A"/>
</svg>
