<svg width="16" height="16" viewBox="0 0 16 16" fill="none" xmlns="http://www.w3.org/2000/svg">
<path d="M14.5 8C14.5 4.40937 11.5906 1.5 8 1.5C7.95625 1.5 7.90937 1.5 7.86562 1.5C7.95 1.64375 8 1.81562 8 2V7C8 7.55313 7.55313 8 7 8H2C1.81875 8 1.64687 7.95 1.5 7.86562C1.5 7.90937 1.5 7.95625 1.5 8C1.5 11.5906 4.40937 14.5 8 14.5C11.5906 14.5 14.5 11.5906 14.5 8ZM0 8C0 5.87827 0.842855 3.84344 2.34315 2.34315C3.84344 0.842855 5.87827 0 8 0C10.1217 0 12.1566 0.842855 13.6569 2.34315C15.1571 3.84344 16 5.87827 16 8C16 10.1217 15.1571 12.1566 13.6569 13.6569C12.1566 15.1571 10.1217 16 8 16C5.87827 16 3.84344 15.1571 2.34315 13.6569C0.842855 12.1566 0 10.1217 0 8Z" fill="#737373"/>
</svg>
