<svg width="37" height="32" viewBox="0 0 37 32" fill="none" xmlns="http://www.w3.org/2000/svg">
<path d="M22.1758 0C23.2648 0.000317815 23.7967 1.07221 23.7969 1.43359C22.8956 1.43359 22.3152 2.24537 21.8574 3.59473C26.732 4.29384 31.4948 5.18105 36.209 4.26465C36.209 6.17146 33.1051 7.6054 30.6045 7.60547C28.0462 7.60547 24.8872 6.64389 21.2666 5.85742C21.1128 6.58078 20.9633 7.37027 20.8076 8.20801C19.9875 12.6047 18.9673 18.2169 18.4756 20.7861C16.8079 29.5242 13.435 32.002 9.1084 32.002C6.17939 32.0018 4.23457 30.0636 4.23438 27.6055C4.23438 26.4024 4.74936 25.6713 5.29102 25.6709L5.30078 25.6631C5.30097 26.6696 6.85433 28.4951 9.45508 28.4951C12.876 28.495 14.851 25.7858 15.79 20.8682C16.2541 18.4366 16.9696 14.692 17.9951 9.19629C18.2728 7.70626 18.5272 6.43949 18.7715 5.36719C16.9934 5.06463 15.1219 4.85548 13.1709 4.85547C7.80876 4.85547 3.61232 7.51586 3.61328 11.2637C3.61328 13.9734 6.11076 14.8919 7.89453 14.0039C8.57886 15.3029 7.39459 17.2695 5.11328 17.2695C3.18693 17.2695 0 15.7961 0 11.7568C4.15945e-05 6.62986 4.79169 2.93662 14.3789 2.93652C16.0401 2.93652 17.6855 3.07111 19.3174 3.26172C20.0627 0.807088 20.849 0 22.1758 0Z" fill="#6A28EA"/>
</svg>
