<svg width="12" height="13" viewBox="0 0 12 13" fill="none" xmlns="http://www.w3.org/2000/svg">
<path d="M7.6 3.2C7.6 2.66957 7.38929 2.16086 7.01421 1.78579C6.63914 1.41071 6.13043 1.2 5.6 1.2C5.06957 1.2 4.56086 1.41071 4.18579 1.78579C3.81071 2.16086 3.6 2.66957 3.6 3.2C3.6 3.73043 3.81071 4.23914 4.18579 4.61421C4.56086 4.98929 5.06957 5.2 5.6 5.2C6.13043 5.2 6.63914 4.98929 7.01421 4.61421C7.38929 4.23914 7.6 3.73043 7.6 3.2ZM2.4 3.2C2.4 2.35131 2.73714 1.53737 3.33726 0.937258C3.93737 0.337142 4.75131 0 5.6 0C6.44869 0 7.26262 0.337142 7.86274 0.937258C8.46286 1.53737 8.8 2.35131 8.8 3.2C8.8 4.04869 8.46286 4.86263 7.86274 5.46274C7.26262 6.06286 6.44869 6.4 5.6 6.4C4.75131 6.4 3.93737 6.06286 3.33726 5.46274C2.73714 4.86263 2.4 4.04869 2.4 3.2ZM1.2325 11.6H9.97C9.7475 10.0175 8.3875 8.8 6.745 8.8H4.46C2.8175 8.8 1.4575 10.0175 1.235 11.6H1.2325ZM0 12.0575C0 9.595 1.995 7.6 4.4575 7.6H6.7425C9.205 7.6 11.2 9.595 11.2 12.0575C11.2 12.4675 10.8675 12.8 10.4575 12.8H0.7425C0.3325 12.8 0 12.4675 0 12.0575Z" fill="#2A2A2A"/>
</svg>
