<svg width="13" height="13" viewBox="0 0 13 13" fill="none" xmlns="http://www.w3.org/2000/svg">
<path d="M1.2 10.4007V11.6007H2.8V10.4007H1.2ZM3.4 12.6407C3.2225 12.7432 3.0175 12.8007 2.8 12.8007H1.2C0.5375 12.8007 0 12.2632 0 11.6007V10.4007V9.80074V9.20074V3.60074V3.00074V2.40074V1.20074C0 0.538237 0.5375 0.000736579 1.2 0.000736579H2.8C3.0175 0.000736579 3.2225 0.0582366 3.4 0.160737C3.5775 0.0582366 3.7825 0.000736579 4 0.000736579H5.6C6.115 0.000736579 6.5525 0.323237 6.725 0.778237C6.865 0.625737 7.0475 0.510737 7.26 0.453237L8.7475 0.0407366C9.365 -0.129263 10 0.248237 10.165 0.885737L10.615 2.61574L10.765 3.19574L12.31 9.15324L12.46 9.73324L12.7575 10.8832C12.9225 11.5207 12.5575 12.1757 11.94 12.3457L10.45 12.7582C9.8325 12.9282 9.1975 12.5507 9.0325 11.9132L8.5825 10.1832L8.4325 9.60324L6.89 3.64824L6.8 3.30574V3.60074V9.20074V9.80074V10.4007V11.6007C6.8 12.2632 6.2625 12.8007 5.6 12.8007H4C3.7825 12.8007 3.5775 12.7432 3.4 12.6407ZM4 11.6007H5.6V10.4007H4V11.6007ZM2.8 1.20074H1.2V2.40074H2.8V1.20074ZM2.8 3.60074H1.2V9.20074H2.8V3.60074ZM4 2.40074H5.6V1.20074H4V2.40074ZM5.6 9.20074V3.60074H4V9.20074H5.6ZM11.0025 8.89324L9.6075 3.51824L8.195 3.90824L9.59 9.28324L11.0025 8.89324ZM9.8925 10.4457L10.19 11.5882L11.6 11.1982C11.6 11.1957 11.6 11.1932 11.6 11.1907V11.1882L11.3075 10.0582L9.895 10.4482L9.8925 10.4457ZM7.895 2.74574L9.3075 2.35574L9.01 1.21324L7.6 1.60324C7.6 1.60574 7.6 1.60824 7.6 1.61324L7.8925 2.74324L7.895 2.74574Z" fill="#2A2A2A"/>
</svg>
