<svg width="16" height="13" viewBox="0 0 16 13" fill="none" xmlns="http://www.w3.org/2000/svg">
<path d="M3.59775 3.9975C4.12785 3.9975 4.63624 3.78692 5.01108 3.41208C5.38592 3.03724 5.5965 2.52885 5.5965 1.99875C5.5965 1.46865 5.38592 0.960259 5.01108 0.58542C4.63624 0.210582 4.12785 0 3.59775 0C3.06765 0 2.55926 0.210582 2.18442 0.58542C1.80958 0.960259 1.599 1.46865 1.599 1.99875C1.599 2.52885 1.80958 3.03724 2.18442 3.41208C2.55926 3.78692 3.06765 3.9975 3.59775 3.9975ZM12.792 3.9975C13.3221 3.9975 13.8305 3.78692 14.2053 3.41208C14.5802 3.03724 14.7908 2.52885 14.7908 1.99875C14.7908 1.46865 14.5802 0.960259 14.2053 0.58542C13.8305 0.210582 13.3221 0 12.792 0C12.2619 0 11.7535 0.210582 11.3787 0.58542C11.0038 0.960259 10.7933 1.46865 10.7933 1.99875C10.7933 2.52885 11.0038 3.03724 11.3787 3.41208C11.7535 3.78692 12.2619 3.9975 12.792 3.9975ZM0 7.46283C0 7.75515 0.23985 7.995 0.532167 7.995H5.86133C5.86633 7.995 5.87133 7.995 5.87882 7.995C5.21424 7.40787 4.797 6.5509 4.797 5.5965C4.797 5.40662 4.81449 5.22173 4.84447 5.03935C4.50468 4.88195 4.12742 4.797 3.73017 4.797H2.66333C1.19425 4.797 0 5.99125 0 7.46283ZM10.1262 7.995H15.4553C15.7502 7.995 15.9875 7.75515 15.9875 7.46283C15.99 5.99125 14.7957 4.797 13.3242 4.797H12.2573C11.8601 4.797 11.4828 4.88445 11.143 5.03935C11.1755 5.21924 11.1905 5.40662 11.1905 5.5965C11.1905 6.5509 10.7708 7.40787 10.1087 7.995C10.1137 7.995 10.1187 7.995 10.1262 7.995ZM7.995 4.39725C8.15249 4.39725 8.30843 4.42827 8.45393 4.48854C8.59943 4.54881 8.73164 4.63714 8.843 4.7485C8.95436 4.85986 9.0427 4.99207 9.10296 5.13757C9.16323 5.28307 9.19425 5.43901 9.19425 5.5965C9.19425 5.75399 9.16323 5.90993 9.10296 6.05543C9.0427 6.20093 8.95436 6.33314 8.843 6.4445C8.73164 6.55586 8.59943 6.6442 8.45393 6.70446C8.30843 6.76473 8.15249 6.79575 7.995 6.79575C7.83751 6.79575 7.68157 6.76473 7.53607 6.70446C7.39057 6.6442 7.25836 6.55586 7.147 6.4445C7.03564 6.33314 6.94731 6.20093 6.88704 6.05543C6.82677 5.90993 6.79575 5.75399 6.79575 5.5965C6.79575 5.43901 6.82677 5.28307 6.88704 5.13757C6.94731 4.99207 7.03564 4.85986 7.147 4.7485C7.25836 4.63714 7.39057 4.54881 7.53607 4.48854C7.68157 4.42827 7.83751 4.39725 7.995 4.39725ZM7.995 7.995C8.30998 7.995 8.62187 7.93296 8.91287 7.81243C9.20387 7.69189 9.46828 7.51522 9.691 7.2925C9.91372 7.06978 10.0904 6.80537 10.2109 6.51437C10.3315 6.22337 10.3935 5.91148 10.3935 5.5965C10.3935 5.28152 10.3315 4.96963 10.2109 4.67863C10.0904 4.38763 9.91372 4.12323 9.691 3.9005C9.46828 3.67778 9.20387 3.50111 8.91287 3.38058C8.62187 3.26004 8.30998 3.198 7.995 3.198C7.68002 3.198 7.36813 3.26004 7.07713 3.38058C6.78613 3.50111 6.52173 3.67778 6.299 3.9005C6.07628 4.12323 5.89961 4.38763 5.77908 4.67863C5.65854 4.96963 5.5965 5.28152 5.5965 5.5965C5.5965 5.91148 5.65854 6.22337 5.77908 6.51437C5.89961 6.80537 6.07628 7.06978 6.299 7.2925C6.52173 7.51522 6.78613 7.69189 7.07713 7.81243C7.36813 7.93296 7.68002 7.995 7.995 7.995ZM6.52842 9.99375H9.45909C10.4535 9.99375 11.2879 10.6733 11.5228 11.5928H4.46221C4.69956 10.6733 5.53404 9.99375 6.52592 9.99375H6.52842ZM6.52842 8.7945C4.68957 8.7945 3.198 10.2861 3.198 12.1249C3.198 12.4922 3.49531 12.792 3.86508 12.792H12.1274C12.4947 12.792 12.7945 12.4947 12.7945 12.1249C12.792 10.2861 11.3004 8.7945 9.46158 8.7945H6.53092H6.52842Z" fill="#2A2A2A"/>
</svg>
