<svg width="15" height="13" viewBox="0 0 15 13" fill="none" xmlns="http://www.w3.org/2000/svg">
<path d="M6.80694 0.142407C7.0318 -0.047469 7.35908 -0.047469 7.58393 0.142407L11.5913 3.54518V1.39909C11.5913 1.0668 11.8586 0.799478 12.1909 0.799478C12.5232 0.799478 12.7905 1.0668 12.7905 1.39909V4.56202L14.1771 5.73875C14.4295 5.95361 14.4619 6.33086 14.2471 6.5832C14.0322 6.83553 13.655 6.86551 13.4026 6.65315L12.7905 6.13349V10.7929C12.7905 11.8972 11.8961 12.7916 10.7918 12.7916H3.59654C2.49226 12.7916 1.59784 11.8972 1.59784 10.7929V6.13349L0.985744 6.65315C0.733409 6.86801 0.353657 6.83553 0.141296 6.5832C-0.0710655 6.33086 -0.0410851 5.95111 0.21125 5.73875L6.80694 0.142407ZM2.79706 5.11666V10.7929C2.79706 11.2352 3.15433 11.5924 3.59654 11.5924H4.79576V7.79491C4.79576 7.24277 5.24296 6.79556 5.7951 6.79556H8.59328C9.14541 6.79556 9.59262 7.24277 9.59262 7.79491V11.5924H10.7918C11.234 11.5924 11.5913 11.2352 11.5913 10.7929V5.11666L7.19419 1.38659L2.79706 5.11666ZM8.39341 7.99478H5.99497V11.5924H8.39341V7.99478Z" fill="#6A28EA"/>
</svg>
