<svg width="16" height="13" viewBox="0 0 16 13" fill="none" xmlns="http://www.w3.org/2000/svg">
<path d="M0 4.6421C0 4.4822 0.039975 4.3248 0.117427 4.18488L2.05871 0.624609C2.26858 0.23985 2.67083 0 3.11055 0H12.8794C13.3192 0 13.7214 0.23985 13.9313 0.624609L15.8726 4.18238C15.95 4.3223 15.99 4.4797 15.99 4.6396C15.99 5.16677 15.5628 5.594 15.0356 5.594L14.391 5.5965V12.1924C14.391 12.5247 14.1237 12.792 13.7914 12.792C13.4591 12.792 13.1918 12.5247 13.1918 12.1924V5.5965H9.594V11.7926C9.594 12.3448 9.14678 12.792 8.59463 12.792H2.59838C2.04622 12.792 1.599 12.3448 1.599 11.7926V5.5965H0.954403C0.427233 5.5965 0 5.16927 0 4.6421ZM2.79825 5.5965V7.995H8.39475V5.5965H2.79825ZM12.8794 1.19925H3.11055L1.36665 4.39725H14.6234L12.8794 1.19925ZM2.79825 11.5928H8.39475V9.19425H2.79825V11.5928Z" fill="#2A2A2A"/>
</svg>
