<svg width="16" height="13" viewBox="0 0 16 13" fill="none" xmlns="http://www.w3.org/2000/svg">
<path d="M0.0374766 11.4603C0.187383 10.3235 0.76702 9.32167 1.6065 8.62211C2.38101 7.98001 3.37289 7.59525 4.45471 7.59525H5.5965H6.73829C7.82011 7.59525 8.81199 7.98001 9.58401 8.62211C10.4235 9.32167 11.0031 10.3235 11.153 11.4603C11.178 11.6527 11.1905 11.8501 11.1905 12.05C11.1905 12.4597 10.8582 12.792 10.4485 12.792H9.95877H1.23173H0.742036C0.332292 12.792 0 12.4597 0 12.05C0 11.8501 0.0124922 11.6527 0.0374766 11.4603ZM2.3985 3.198C2.3985 2.34984 2.73543 1.53641 3.33517 0.936673C3.93491 0.336931 4.74834 0 5.5965 0C6.44466 0 7.25809 0.336931 7.85783 0.936673C8.45757 1.53641 8.7945 2.34984 8.7945 3.198C8.7945 4.04616 8.45757 4.85959 7.85783 5.45933C7.25809 6.05907 6.44466 6.396 5.5965 6.396C4.74834 6.396 3.93491 6.05907 3.33517 5.45933C2.73543 4.85959 2.3985 4.04616 2.3985 3.198ZM7.59525 3.198C7.59525 2.6679 7.38467 2.15951 7.00983 1.78467C6.63499 1.40983 6.1266 1.19925 5.5965 1.19925C5.0664 1.19925 4.55801 1.40983 4.18317 1.78467C3.80833 2.15951 3.59775 2.6679 3.59775 3.198C3.59775 3.7281 3.80833 4.23649 4.18317 4.61133C4.55801 4.98617 5.0664 5.19675 5.5965 5.19675C6.1266 5.19675 6.63499 4.98617 7.00983 4.61133C7.38467 4.23649 7.59525 3.7281 7.59525 3.198ZM4.45471 8.7945C3.26046 8.7945 2.21861 9.4366 1.65147 10.3935C1.4366 10.7533 1.29169 11.1605 1.23173 11.5928H2.44847H8.74453H9.96377C9.95378 11.5253 9.94378 11.4603 9.92879 11.3929C9.85634 11.0356 9.72392 10.6983 9.54153 10.3935C8.97439 9.4366 7.93254 8.7945 6.73829 8.7945H4.45471ZM15.223 12.792H11.8026C11.925 12.5721 11.9925 12.3198 11.9925 12.05C11.9925 10.426 11.2555 8.97189 10.0962 8.00749C10.2036 7.9975 10.3136 7.995 10.426 7.995H11.96C14.1861 7.995 15.99 9.79887 15.99 12.025C15.99 12.4497 15.6452 12.792 15.223 12.792ZM10.7933 6.396C10.0187 6.396 9.31917 6.0812 8.81199 5.57401C9.30418 4.90943 9.594 4.08744 9.594 3.198C9.594 2.52842 9.4291 1.89631 9.13679 1.34166C9.6015 1.00187 10.1736 0.7995 10.7933 0.7995C12.3398 0.7995 13.5915 2.05122 13.5915 3.59775C13.5915 5.14428 12.3398 6.396 10.7933 6.396Z" fill="#2A2A2A"/>
</svg>
