<svg width="10" height="13" viewBox="0 0 10 13" fill="none" xmlns="http://www.w3.org/2000/svg">
<path d="M1.19875 11.1883V1.59833C1.19875 1.37856 1.37856 1.19875 1.59833 1.19875H5.59417V3.19667C5.59417 3.63871 5.95129 3.99583 6.39333 3.99583H8.39125V11.1883C8.39125 11.4081 8.21144 11.5879 7.99167 11.5879H1.59833C1.37856 11.5879 1.19875 11.4081 1.19875 11.1883ZM1.59833 0C0.716753 0 0 0.716753 0 1.59833V11.1883C0 12.0699 0.716753 12.7867 1.59833 12.7867H7.99167C8.87325 12.7867 9.59 12.0699 9.59 11.1883V3.85848C9.59 3.43392 9.42267 3.02684 9.12299 2.72716L6.86035 0.467013C6.56066 0.167326 6.15608 0 5.73152 0H1.59833ZM5.39438 6.99271C5.39438 6.66055 5.12715 6.39333 4.795 6.39333C4.46285 6.39333 4.19563 6.66055 4.19563 6.99271V10.1894C4.19563 10.5215 4.46285 10.7888 4.795 10.7888C5.12715 10.7888 5.39438 10.5215 5.39438 10.1894V6.99271ZM7.59208 7.79188C7.59208 7.45972 7.32486 7.1925 6.99271 7.1925C6.66055 7.1925 6.39333 7.45972 6.39333 7.79188V10.1894C6.39333 10.5215 6.66055 10.7888 6.99271 10.7888C7.32486 10.7888 7.59208 10.5215 7.59208 10.1894V7.79188ZM3.19667 8.59104C3.19667 8.25889 2.92945 7.99167 2.59729 7.99167C2.26514 7.99167 1.99792 8.25889 1.99792 8.59104V10.1894C1.99792 10.5215 2.26514 10.7888 2.59729 10.7888C2.92945 10.7888 3.19667 10.5215 3.19667 10.1894V8.59104Z" fill="#2A2A2A"/>
</svg>
